# xmcd CD database file
#
# Track frame offsets:
#	150
#	6366
#	15435
#	30725
#	65936
#	87795
#	108310
#	142339
#	171419
#	191711
#	206380
#	224374
#	242865
#	258532
#
# Disc length: 3856 seconds
#
# Revision: 0
# Processed by: cddbd v1.5.2PL0 Copyright (c) Steve Scherf et al.
# Submitted via: CDex 1.51
#
DISCID=d20f0e0e
DTITLE=BBC Big Band - Live in Berlin with RIAS Big Band Berlin
DYEAR=1998
DGENRE=Jazz
TTITLE0=RIASessement(RIAS Opening Theme)
TTITLE1=Ticker(BBC Opening Theme)
TTITLE2=Jumpin' at the Woodside ( BBC and RIAS)
TTITLE3=Body and Soul (BBC)
TTITLE4=Secret Lover (BBC)
TTITLE5=Daydream (RIAS)
TTITLE6=Sing Sing Sing (BBC)
TTITLE7=Don't Get Around Mucvh Anymore/I Let a Song Go out of My Heart (BBC&RIAS)
TTITLE8=Take the A Train (BBC&RIAS)
TTITLE9=Back Bay Shuffle (RIAS)
TTITLE10=Love Walked In (BBC)
TTITLE11=Sophisticated Lady (BBC)
TTITLE12=Swingitime in the Rockies (RIAS)
TTITLE13=Battle Royal (BBC&RIAS)
EXTD=YEAR: 1998
EXTT0=
EXTT1=
EXTT2=
EXTT3=
EXTT4=
EXTT5=
EXTT6=
EXTT7=
EXTT8=
EXTT9=
EXTT10=
EXTT11=
EXTT12=
EXTT13=
PLAYORDER=
